<?xml version="1.0" standalone="no"?>
<!DOCTYPE svg PUBLIC "-//W3C//DTD SVG 20010904//EN"
 "http://www.w3.org/TR/2001/REC-SVG-20010904/DTD/svg10.dtd">
<svg version="1.0" xmlns="http://www.w3.org/2000/svg"
 width="522.000000pt" height="522.000000pt" viewBox="0 0 522.000000 522.000000"
 preserveAspectRatio="xMidYMid meet">
<metadata>
Created by potrace 1.11, written by Peter Selinger 2001-2013
</metadata>
<g transform="translate(0.000000,522.000000) scale(0.100000,-0.100000)"
fill="#000000" stroke="none">
<path d="M925 3554 c-5 -1 -57 -5 -115 -7 -112 -6 -131 -9 -225 -34 -235 -64
-411 -224 -476 -435 -22 -71 -23 -75 -6 -75 42 -1 244 -15 259 -18 10 -2 59
-7 108 -10 l91 -6 14 34 c29 69 95 128 175 156 100 34 258 18 326 -34 62 -47
99 -175 68 -236 -32 -63 -94 -80 -414 -115 -30 -3 -96 -12 -145 -19 -287 -45
-462 -162 -530 -355 -23 -65 -28 -104 -28 -206 2 -252 133 -427 378 -504 89
-28 296 -35 395 -14 134 28 271 118 340 222 17 26 34 45 37 42 3 -3 6 -59 7
-125 l1 -120 242 0 242 0 -1 645 c-1 721 -3 747 -64 867 -96 190 -321 318
-594 340 -30 2 -59 5 -65 7 -5 2 -14 2 -20 0z m224 -1284 c-41 -150 -174 -247
-346 -255 -80 -3 -167 18 -211 52 -123 93 -99 272 46 347 37 19 134 44 202 52
74 8 226 40 275 57 l40 14 3 -111 c2 -66 -2 -129 -9 -156z"/>
<path d="M2497 3554 c-1 -1 -36 -5 -77 -9 -324 -31 -551 -193 -616 -438 -19
-73 -12 -226 14 -299 68 -190 242 -304 552 -361 14 -3 59 -12 100 -20 41 -9
91 -19 110 -22 157 -27 256 -77 281 -142 33 -88 -23 -173 -142 -214 -79 -27
-245 -22 -314 10 -78 35 -135 98 -155 170 -6 23 -9 24 -75 22 -39 -2 -90 -4
-115 -6 -25 -1 -103 -6 -175 -10 -71 -4 -133 -9 -136 -11 -19 -11 33 -168 80
-242 85 -131 207 -219 375 -271 68 -21 83 -24 181 -41 92 -16 371 -5 464 19
334 85 521 273 538 542 10 145 -28 251 -121 344 -100 100 -251 161 -516 208
-248 45 -362 81 -413 132 -33 33 -41 62 -34 115 7 56 34 86 107 123 60 30 71
32 165 32 79 -1 110 -5 146 -22 65 -29 111 -74 142 -136 23 -48 29 -54 54 -51
30 3 126 9 308 20 61 3 114 8 118 11 4 3 6 12 3 21 -3 10 -8 33 -11 52 -8 51
-60 157 -106 218 -103 136 -313 233 -534 248 -91 6 -196 10 -198 8z"/>
<path d="M4442 3548 c-171 -19 -318 -104 -406 -236 -25 -38 -46 -74 -46 -80 0
-5 -7 -15 -15 -22 -13 -11 -15 7 -15 154 l0 166 -244 0 -244 0 1 -917 2 -918
248 0 c156 0 251 4 255 10 4 5 7 264 8 575 2 622 1 616 64 709 59 86 146 131
263 136 124 6 209 -33 286 -131 17 -21 48 -121 51 -164 2 -25 4 -289 4 -587 1
-299 3 -544 6 -544 12 -3 486 -5 495 -2 12 4 13 1217 1 1302 -17 123 -81 274
-149 351 -74 84 -173 147 -280 177 -70 19 -208 30 -285 21z"/>
</g>
</svg>
