<?xml version="1.0" standalone="no"?>
<!DOCTYPE svg PUBLIC "-//W3C//DTD SVG 20010904//EN"
 "http://www.w3.org/TR/2001/REC-SVG-20010904/DTD/svg10.dtd">
<svg version="1.0" xmlns="http://www.w3.org/2000/svg"
 width="700.000000pt" height="700.000000pt" viewBox="0 0 700.000000 700.000000"
 preserveAspectRatio="xMidYMid meet">
<metadata>
Created by potrace 1.14, written by Peter Selinger 2001-2017
</metadata>
<g transform="translate(0.000000,700.000000) scale(0.100000,-0.100000)"
fill="#000000" stroke="none">
<path d="M2675 4488 c-137 -193 -263 -369 -280 -392 -16 -23 -285 -399 -597
-836 -312 -437 -571 -799 -575 -805 -5 -5 -42 -57 -82 -115 -41 -58 -85 -118
-98 -133 -13 -16 -23 -33 -23 -38 0 -5 154 -9 379 -9 l379 0 133 188 c73 103
142 199 153 213 12 14 27 35 34 45 6 10 113 161 237 334 124 173 229 322 235
330 6 8 51 71 101 140 50 69 98 136 107 150 22 32 577 810 594 832 7 9 76 105
153 213 77 108 146 205 154 216 13 19 6 19 -370 19 l-384 0 -250 -352z"/>
<path d="M4062 4823 c-19 -27 -1613 -2259 -1768 -2475 l-133 -188 383 0 383 0
99 140 c54 78 105 149 112 158 10 13 332 465 398 557 8 11 40 56 72 100 31 44
65 91 74 105 10 14 69 97 132 185 64 88 120 167 126 175 29 43 240 336 247
345 5 6 40 55 78 110 38 55 73 105 78 110 5 6 97 134 205 286 108 152 205 287
214 300 10 13 31 43 48 67 l30 42 -383 0 c-353 0 -384 -1 -395 -17z"/>
<path d="M5290 4833 c-46 -16 -88 -40 -112 -63 -15 -14 -222 -298 -460 -632
-238 -335 -491 -690 -563 -790 -71 -100 -148 -207 -169 -237 -21 -31 -100
-141 -175 -246 -75 -104 -143 -199 -151 -212 -12 -18 -137 -194 -318 -446
l-34 -47 384 0 383 0 485 681 c267 374 490 686 495 692 6 7 73 101 150 210
l140 198 3 -890 2 -891 320 0 320 0 -2 1273 -3 1272 -24 38 c-13 21 -42 50
-64 65 l-41 27 -275 2 c-152 1 -283 -1 -291 -4z"/>
</g>
</svg>
